Coordinates
version=1
nRows=9
nColumns=24
inDegrees=yes

Units are S.I. units (second, meters, Newtons, ...)
Angles are in degrees.

endheader
time	pelvis_tilt	pelvis_list	pelvis_rotation	pelvis_tx	pelvis_ty	pelvis_tz	hip_flexion_r	hip_adduction_r	hip_rotation_r	knee_angle_r	ankle_angle_r	subtalar_angle_r	mtp_angle_r	hip_flexion_l	hip_adduction_l	hip_rotation_l	knee_angle_l	ankle_angle_l	subtalar_angle_l	mtp_angle_l	lumbar_extension	lumbar_bending	lumbar_rotation
      3.82000000	      8.17630685	      0.15484114	      3.28597442	     -1.42111904	      0.88282554	      0.20605495	     17.42197050	      0.79122373	     -1.46805683	     -9.59437560	     15.94899606	      5.32310857	      0.00000000	    -32.57529510	      4.15723280	      5.92663960	    -11.35000338	     10.96864665	     -8.85329405	      0.00000000	    -24.87717606	      7.90348739	    -16.75158367
      3.83000000	      8.15788213	     -0.14608257	      3.60209673	     -1.40314257	      0.88184386	      0.20633824	     18.12389440	      1.08268676	     -1.90129607	    -12.55247791	     14.81275510	      5.52055198	      0.00000000	    -31.41515781	      3.41496325	      3.47823439	    -14.87760608	     10.03073492	     -5.95368753	      0.00000000	    -24.39703216	      8.67894870	    -17.27297328
      3.84000000	      8.37112723	     -0.62188380	      3.95036033	     -1.38537196	      0.88138868	      0.20665264	     18.47382820	      1.55404480	     -2.45376303	    -15.28127412	     13.74797388	      5.58431300	      0.00000000	    -30.26100360	      2.37484000	      1.35282442	    -18.64296559	      8.37687094	     -3.65445573	      0.00000000	    -24.24962006	      9.66069327	    -17.69121212
      3.85000000	      8.56208325	     -1.14929363	      4.32894213	     -1.36790394	      0.88115941	      0.20694903	     18.78051119	      2.06182299	     -3.07809974	    -17.87141571	     13.19178494	      5.61255820	      0.00000000	    -28.82508671	      1.23271665	     -0.17122709	    -22.64575115	      5.90241384	     -2.15364080	      0.00000000	    -24.13118520	     10.68166873	    -18.07082194
      3.86000000	      8.81729722	     -1.74815157	      4.72733476	     -1.35084959	      0.88120516	      0.20726252	     18.92726127	      2.63999590	     -3.80183826	    -20.29620052	     13.21488496	      5.71259949	      0.00000000	    -27.17457522	     -0.03221670	     -1.32302255	    -26.89753382	      3.05909707	     -1.01147046	      0.00000000	    -24.16406087	     11.74610723	    -18.36313601
      3.87000000	      9.04054833	     -2.39016007	      5.15638398	     -1.33421829	      0.88136298	      0.20760193	     18.96938580	      3.26842096	     -4.55833068	    -22.49348238	     13.81544619	      5.81962110	      0.00000000	    -25.22739557	     -1.36735440	     -2.10075603	    -31.34645190	      0.17231046	     -0.10951915	      0.00000000	    -24.21390436	     12.80251486	    -18.58244516
      3.88000000	      9.19660553	     -3.05516786	      5.62402617	     -1.31802252	      0.88156338	      0.20800028	     18.89380868	      3.94662493	     -5.26710451	    -24.37505609	     14.84035171	      5.85245979	      0.00000000	    -22.98362943	     -2.73903667	     -2.55755279	    -35.91516097	     -2.36196596	      0.64822752	      0.00000000	    -24.22350706	     13.80984392	    -18.72543760
      3.89000000	      9.24700559	     -3.73697602	      6.12784674	     -1.30223869	      0.88180015	      0.20847945	     18.69132250	      4.68385036	     -5.88695907	    -25.83593267	     16.09204724	      5.76747101	      0.00000000	    -20.45414499	     -4.10912490	     -2.72201183	    -40.49729679	     -4.21099831	      1.31642536	      0.00000000	    -24.12901044	     14.75052470	    -18.77986870
      3.90000000	      9.18918443	     -4.40557909	      6.65593291	     -1.28683381	      0.88214216	      0.20903392	     18.36012311	      5.45131955	     -6.40437355	    -26.85733408	     17.42808004	      5.59779416	      0.00000000	    -17.69893900	     -5.42138707	     -2.66052020	    -44.96546315	     -5.20885368	      1.83107356	      0.00000000	    -23.91381845	     15.58971290	    -18.78140625
